<svg id="Laag_1" data-name="Laag 1" xmlns="http://www.w3.org/2000/svg" viewBox="0 0 600 200"><defs><style>.cls-1{fill:#555;}</style></defs><title>wp-charts_doughnut</title><path class="cls-1" d="M388.51,77.3l-86-62.52a4.21,4.21,0,0,0-5,0l-86,62.52A4.21,4.21,0,0,0,210,82L242.8,183.11a4.21,4.21,0,0,0,4,2.91H353.19a4.21,4.21,0,0,0,4-2.91L390.05,82A4.21,4.21,0,0,0,388.51,77.3Zm-3.53,3L370.18,85a2.85,2.85,0,0,0-3.47-1.14L303.13,49.33a3,3,0,0,0-2.39-2.69V19.06Zm-20.31,6.5-63.92,20.81V52.54a3,3,0,0,0,1.12-.5l62.92,34.12a3,3,0,0,0-.12.6Zm-22.2,82.85-75.74-11.36a3.05,3.05,0,0,0-.7-1.61l33.92-46.76,42.95,59.16A3.11,3.11,0,0,0,342.47,169.62ZM298.64,52.28a3,3,0,0,0,.6.22v55.09L250,91.63a2.91,2.91,0,0,0,0-.32,3,3,0,0,0-.18-.86ZM249.53,93l49.27,16.06-34,46.7a3.09,3.09,0,0,0-.94-.2L248.66,93.88A3,3,0,0,0,249.53,93Zm13,68.5a3.09,3.09,0,0,0,1.2.24,3,3,0,0,0,1.83-.66l77.07,11.56a3,3,0,0,0,3.83,1.2l5.68,7.73H247.92Zm82.67,6.4a3.07,3.07,0,0,0-1,.2L301.21,109,365.07,88.3a3.05,3.05,0,0,0,.94,1ZM299.24,19.06V46.64A3.07,3.07,0,0,0,297,49.57v.2L247.76,88.36a3,3,0,0,0-.74-.16,3.07,3.07,0,0,0-2.65,1.59L215,80.27ZM214.55,81.7l29.38,9.53h0A3.07,3.07,0,0,0,245.65,94l15.49,63a2.85,2.85,0,0,0,.18,3.59l-14.61,20.07Zm138.72,99-5.68-7.81a2.83,2.83,0,0,0,.24-3.41L369,89.63a3.09,3.09,0,0,0,1.83-2.81,2.91,2.91,0,0,0,0-.36l14.67-4.76Z"/></svg>