<svg id="Laag_1" data-name="Laag 1" xmlns="http://www.w3.org/2000/svg" viewBox="0 0 600 200"><defs><style>.cls-1{fill:#555;}</style></defs><title>wp-charts_doughnut</title><path class="cls-1" d="M237.1,159.05a6.39,6.39,0,0,0,4.17-11.26l16.14-25.06a6.39,6.39,0,0,0,6.87-10.67L280.45,87a5.71,5.71,0,0,0,6.17-.76l15.85,11.32a5.6,5.6,0,0,0-.8,2.85,5.66,5.66,0,1,0,8.54-4.85l19.31-35.41a5.79,5.79,0,0,0,8.08-6.9l21.94-6.92a6.38,6.38,0,1,0-.88-3.19,6.31,6.31,0,0,0,.28,1.79l-22,6.92a5.83,5.83,0,1,0-8.75,7.47L308.81,94.93a5.49,5.49,0,0,0-5.42,1.39L287.68,85.1a5.86,5.86,0,1,0-8.49,1L263,111.24a6.39,6.39,0,0,0-6.87,10.67l-16.12,25a6.35,6.35,0,0,0-2.92-.73,6.42,6.42,0,1,0,0,12.83Z"/><polygon class="cls-1" points="225.44 166.07 225.44 30.91 222.67 30.91 222.67 166.07 222.67 169.09 225.44 169.09 377.33 169.09 377.33 166.07 225.44 166.07"/></svg>