<svg id="Laag_1" data-name="Laag 1" xmlns="http://www.w3.org/2000/svg" viewBox="0 0 600 200"><defs><style>.cls-1{fill:#555;}</style></defs><title>wp-charts_doughnut</title><path class="cls-1" d="M320.17,45.61A65,65,0,0,1,359.1,61.87L320.17,101.2Zm6.42,60.21h38.33c-.8-8-4.82-19.67-11.24-27.29Zm35.52,43.75a58.33,58.33,0,0,0,14.65-35.72H326.59Zm-41.95,31.91a68.35,68.35,0,0,0,42.55-17.86l-42.55-42.75Zm-8,8.83V120.87l-48.77,49A78.37,78.37,0,0,0,312.14,190.31Zm-81.68-76.46a89,89,0,0,0,22.48,54.79l54.19-54.79Zm17.26-68c-15.05,16.66-23.68,39.94-24.48,60h84.09ZM312.14,9.69c-22.08,1-46.56,10.44-64.22,26.89l64.22,64.62Z"/></svg>