<svg id="Laag_1" data-name="Laag 1" xmlns="http://www.w3.org/2000/svg" viewBox="0 0 600 200"><defs><style>.cls-1{fill:#555;}</style></defs><title>wp-charts_doughnut</title><path class="cls-1" d="M253.39,121.15a4.28,4.28,0,1,1,4.28-4.28h0A4.3,4.3,0,0,1,253.39,121.15Zm0-6.94a2.65,2.65,0,1,0,2.65,2.65h0a2.66,2.66,0,0,0-2.65-2.63Z"/><path class="cls-1" d="M312.69,101.36A4.28,4.28,0,1,1,317,97.08h0A4.3,4.3,0,0,1,312.69,101.36Zm0-6.94a2.65,2.65,0,1,0,2.65,2.65h0a2.66,2.66,0,0,0-2.65-2.63Z"/><path class="cls-1" d="M288.81,139.89a4.28,4.28,0,1,1,4.28-4.28A4.28,4.28,0,0,1,288.81,139.89Zm0-6.94a2.65,2.65,0,1,0,2.65,2.65,2.65,2.65,0,0,0-2.65-2.65Z"/><path class="cls-1" d="M297.86,123.23a4.28,4.28,0,1,1,4.28-4.28h0A4.3,4.3,0,0,1,297.86,123.23Zm0-6.94a2.65,2.65,0,1,0,2.65,2.65h0A2.66,2.66,0,0,0,297.86,116.29Z"/><path class="cls-1" d="M271.15,133a4.28,4.28,0,1,1,4.28-4.28A4.28,4.28,0,0,1,271.15,133Zm0-6.94a2.65,2.65,0,1,0,2.65,2.65A2.65,2.65,0,0,0,271.15,126Z"/><path class="cls-1" d="M346.21,116.29a4.28,4.28,0,1,1,4.28-4.28A4.28,4.28,0,0,1,346.21,116.29Zm0-6.94a2.65,2.65,0,1,0,2.65,2.65,2.65,2.65,0,0,0-2.65-2.65Z"/><path class="cls-1" d="M349.69,104.43a4.28,4.28,0,1,1,4.28-4.28h0A4.3,4.3,0,0,1,349.69,104.43Zm0-6.94a2.65,2.65,0,1,0,2.65,2.66,2.65,2.65,0,0,0-2.65-2.66Z"/><path class="cls-1" d="M318.13,123.69a4.28,4.28,0,1,1,4.28-4.28h0A4.3,4.3,0,0,1,318.13,123.69Zm0-6.94a2.65,2.65,0,1,0,2.65,2.65h0A2.66,2.66,0,0,0,318.13,116.74Z"/><path class="cls-1" d="M336.23,98.27A4.28,4.28,0,1,1,340.58,94a4.28,4.28,0,0,1-4.35,4.28Zm0-6.94A2.65,2.65,0,1,0,338.94,94a2.65,2.65,0,0,0-2.71-2.66Z"/><path class="cls-1" d="M342.75,83.11a4.3,4.3,0,1,1,.07,0Zm0-6.94a2.65,2.65,0,1,0,2.73,2.65,2.65,2.65,0,0,0-2.73-2.65Z"/><path class="cls-1" d="M328.87,116.74a4.28,4.28,0,1,1,4.28-4.28A4.28,4.28,0,0,1,328.87,116.74Zm0-6.94a2.65,2.65,0,1,0,2.65,2.65A2.65,2.65,0,0,0,328.87,109.8Z"/><path class="cls-1" d="M373.05,57.05a4.28,4.28,0,1,1,4.28-4.28A4.28,4.28,0,0,1,373.05,57.05Zm0-6.94a2.65,2.65,0,1,0,2.65,2.66,2.65,2.65,0,0,0-2.65-2.66Z"/><path class="cls-1" d="M364.49,91.24A4.28,4.28,0,1,1,368.77,87,4.28,4.28,0,0,1,364.49,91.24Zm0-6.94a2.65,2.65,0,1,0,2.65,2.65A2.65,2.65,0,0,0,364.49,84.3Z"/><path class="cls-1" d="M290.92,113.22a4.28,4.28,0,1,1,4.28-4.28h0A4.3,4.3,0,0,1,290.92,113.22Zm0-6.94a2.65,2.65,0,1,0,2.65,2.65h0a2.66,2.66,0,0,0-2.65-2.58Z"/><path class="cls-1" d="M280.14,104.84a4.28,4.28,0,1,1,4.28-4.28h0A4.3,4.3,0,0,1,280.14,104.84Zm0-6.94a2.65,2.65,0,1,0,2.65,2.65h0A2.66,2.66,0,0,0,280.14,97.89Z"/><path class="cls-1" d="M233.76,146.83a4.28,4.28,0,1,1,4.3-4.26v0A4.3,4.3,0,0,1,233.76,146.83Zm0-6.94a2.66,2.66,0,1,0,.07,0Z"/><path class="cls-1" d="M373.49,175.14H225.93V23.22a1.63,1.63,0,1,0-3.27,0V178.41H373.49a1.63,1.63,0,0,0,0-3.27Z"/><path class="cls-1" d="M235.82,132.82a2.45,2.45,0,1,1-.18-4.9c.93,0,94-7.47,130.26-63.71A2.45,2.45,0,0,1,370,66.82c-37.57,58.35-130.07,65.77-134,66Z"/></svg>